<?xml version="1.0" standalone="no"?>
<!DOCTYPE svg PUBLIC "-//W3C//DTD SVG 20010904//EN"
 "http://www.w3.org/TR/2001/REC-SVG-20010904/DTD/svg10.dtd">
<svg version="1.0" xmlns="http://www.w3.org/2000/svg"
 width="900.000000pt" height="900.000000pt" viewBox="0 0 900.000000 900.000000"
 preserveAspectRatio="xMidYMid meet">
<metadata>
Created by potrace 1.10, written by Peter Selinger 2001-2011
</metadata>
<g transform="translate(0.000000,900.000000) scale(0.100000,-0.100000)"
fill="#000000" stroke="none">
<path d="M4355 6382 c-214 -211 -463 -452 -1174 -1138 -69 -67 -144 -137 -167
-155 -33 -28 -59 -72 -143 -239 -56 -113 -133 -265 -171 -338 -54 -107 -65
-135 -53 -139 15 -6 113 39 188 86 22 14 54 33 71 42 76 42 287 190 569 399
206 153 296 207 381 231 55 15 71 16 102 6 29 -10 37 -17 37 -37 0 -29 -22
-42 -109 -64 -91 -24 -219 -92 -386 -204 -85 -58 -171 -116 -190 -131 -19 -14
-43 -30 -52 -36 -9 -5 -74 -49 -145 -96 -148 -100 -259 -169 -273 -169 -20 0
-18 -19 4 -43 52 -56 270 -367 296 -423 3 -5 40 -62 82 -125 86 -130 199 -262
280 -332 68 -58 169 -127 186 -127 7 0 23 -6 35 -14 12 -8 38 -17 59 -20 35
-6 54 -28 42 -47 -8 -14 -81 -11 -164 7 -181 39 -308 113 -451 261 -87 90
-131 150 -274 373 -195 304 -257 390 -280 390 -53 0 -69 -18 -144 -168 -208
-416 -251 -497 -268 -503 -34 -14 -173 -10 -179 4 -3 8 144 309 326 671 181
362 333 675 336 697 13 77 -44 113 -110 70 -15 -10 -114 -101 -218 -202 -105
-101 -204 -197 -222 -213 -43 -40 -404 -386 -493 -472 l-73 -71 0 -2057 0
-2056 2885 0 2885 0 0 2062 0 2062 -496 494 c-272 271 -501 491 -507 489 -10
-3 -592 -1156 -641 -1269 -16 -37 -21 -84 -10 -112 8 -22 77 -21 117 1 60 34
162 117 251 205 70 69 92 86 102 77 8 -6 14 -14 14 -17 0 -13 -212 -219 -271
-262 -108 -81 -176 -110 -256 -110 -75 1 -99 13 -127 68 -33 64 -13 163 64
330 23 48 46 96 52 106 5 11 25 49 43 85 66 134 137 276 145 291 5 8 33 65 63
125 30 61 79 160 110 220 81 160 96 198 85 218 -10 19 -43 23 -53 7 -15 -24
-65 -10 -103 28 -20 20 -170 165 -332 322 -162 157 -393 382 -513 500 -400
394 -612 600 -617 600 -3 0 -68 -62 -145 -138z m1125 -1399 c79 -55 81 -140 5
-205 -50 -43 -114 -41 -162 4 -32 30 -32 113 -1 153 47 61 112 80 158 48z
m-1233 -519 c31 -23 33 -29 33 -85 0 -35 -7 -73 -16 -90 -26 -52 -9 -66 28
-22 72 87 157 159 221 191 89 43 131 43 183 -2 37 -32 39 -37 39 -92 0 -43 -5
-66 -20 -86 -25 -34 -86 -62 -114 -53 -37 11 -81 64 -81 96 0 112 -177 -33
-332 -271 -48 -73 -68 -110 -150 -270 -38 -74 -76 -141 -85 -147 -17 -13 -129
-18 -157 -7 -9 3 -16 13 -16 21 0 13 158 348 180 383 6 8 15 26 21 40 5 13 28
63 51 110 71 149 76 165 52 191 -9 10 -26 19 -36 19 -33 0 -99 -40 -151 -92
-46 -46 -77 -57 -77 -26 0 18 114 123 168 155 113 67 203 80 259 37z m1060 -1
c36 -42 29 -86 -34 -208 -224 -434 -244 -477 -241 -508 3 -30 6 -32 46 -35 70
-5 171 67 354 252 44 44 62 56 70 48 18 -18 -7 -54 -97 -140 -203 -193 -303
-252 -426 -252 -61 0 -72 3 -101 29 -29 26 -32 33 -32 92 0 60 5 74 86 234 47
94 109 215 137 269 58 110 62 146 15 146 -30 0 -56 -13 -105 -51 -20 -16 -44
-29 -53 -29 -32 0 -15 30 42 72 51 39 85 57 172 96 14 6 52 11 85 11 52 1 62
-2 82 -26z m1392 5 c21 -19 23 -28 18 -77 -4 -45 -22 -90 -95 -231 -204 -397
-210 -413 -192 -435 17 -20 75 -19 113 3 64 35 154 108 240 194 81 82 127 109
127 75 0 -20 -194 -209 -278 -271 -40 -30 -89 -61 -110 -70 -20 -10 -45 -21
-54 -26 -31 -17 -160 -12 -183 8 -42 36 -55 98 -34 163 9 26 177 372 236 484
33 63 36 74 23 90 -24 28 -86 10 -142 -42 -32 -30 -66 -26 -49 6 14 26 96 84
151 108 25 11 56 24 70 31 14 6 50 11 81 11 43 1 60 -4 78 -21z m-3877 -1735
c27 -10 63 -33 81 -51 30 -31 32 -37 32 -109 l0 -75 -40 -35 -40 -35 25 -18
c14 -11 37 -28 51 -39 28 -21 49 -79 49 -132 -1 -52 -41 -120 -90 -154 -44
-29 -47 -29 -202 -33 -86 -3 -168 -2 -180 1 l-23 6 2 343 c1 189 3 344 3 346
0 1 64 2 141 2 109 0 153 -4 191 -17z m644 -5 c98 -19 180 -83 226 -176 20
-41 23 -62 23 -162 0 -100 -3 -121 -23 -161 -102 -207 -376 -253 -530 -88 -17
18 -43 58 -59 88 -26 51 -28 65 -28 161 1 103 2 107 38 172 51 91 114 140 212
164 65 16 71 16 141 2z m756 1 c61 -13 145 -65 181 -112 106 -139 97 -351 -19
-471 -89 -92 -201 -124 -322 -94 -61 15 -110 46 -156 100 -63 73 -79 119 -79
233 -1 90 2 106 28 158 47 97 115 155 215 183 58 16 87 16 152 3z m2257 0 c63
-11 122 -40 148 -71 10 -12 7 -21 -17 -49 -31 -37 -28 -37 -94 15 -52 41 -121
47 -173 15 -48 -29 -58 -42 -90 -107 -23 -49 -25 -62 -21 -155 5 -100 19 -146
60 -198 40 -50 169 -79 198 -44 9 11 11 48 9 127 l-4 113 56 3 c87 5 91 -3 85
-156 -4 -90 -9 -129 -19 -140 -19 -18 -126 -41 -195 -42 -74 0 -139 18 -197
55 -63 41 -77 56 -114 132 -28 55 -31 72 -31 150 0 100 16 154 67 225 57 79
130 118 257 137 5 0 39 -4 75 -10z m-1751 -151 c1 -82 6 -148 10 -148 4 0 38
39 77 88 38 48 72 89 75 92 3 3 18 25 35 50 38 59 52 70 91 70 40 0 64 -9 64
-24 0 -6 -17 -29 -38 -51 -47 -50 -192 -230 -192 -239 0 -9 58 -90 163 -230
100 -132 100 -136 5 -136 -65 0 -67 1 -133 97 -90 133 -135 193 -142 196 -4 1
-10 -63 -13 -143 l-5 -145 -44 -3 c-94 -7 -86 -37 -86 337 0 371 -7 340 80
338 l50 -2 3 -147z m567 146 c21 -5 21 -11 20 -335 0 -374 8 -344 -86 -337
l-44 3 -3 325 c-1 179 0 330 3 337 4 13 72 17 110 7z m267 -6 c18 -15 112
-147 218 -305 45 -68 78 -109 83 -104 6 6 8 97 5 211 -4 200 -4 201 18 206 12
3 33 4 45 2 l24 -3 0 -320 c0 -176 -4 -328 -8 -337 -10 -23 -50 -23 -72 -1 -9
9 -28 35 -42 57 -15 23 -45 66 -68 96 -23 30 -70 98 -105 150 -35 52 -75 106
-88 120 l-25 25 5 -228 4 -228 -24 -6 c-37 -9 -78 9 -73 33 2 10 6 140 8 288
3 192 1 277 -8 297 -18 44 -6 59 44 59 24 0 50 -6 59 -12z m-2007 -983 c61
-12 125 -100 125 -170 0 -81 -72 -160 -155 -170 -89 -12 -159 34 -190 124 -14
41 -14 50 1 96 25 76 113 142 174 130 8 -2 29 -6 45 -10z m623 -51 c43 -47 48
-65 43 -142 -4 -47 -36 -97 -79 -124 -51 -32 -146 -32 -185 -1 -61 48 -72 71
-72 155 0 76 1 78 39 117 28 29 51 42 85 48 74 14 120 0 169 -53z m1840 38
c38 -17 50 -38 33 -55 -8 -8 -20 -6 -46 6 -60 29 -109 23 -149 -18 -45 -45
-55 -92 -29 -142 34 -65 103 -89 163 -58 21 11 30 23 30 40 0 20 -6 24 -32 27
-35 3 -51 33 -26 49 20 13 92 11 106 -3 7 -7 12 -35 12 -64 0 -48 -3 -54 -36
-79 -31 -24 -47 -28 -99 -29 -42 -1 -72 5 -96 18 -99 53 -117 196 -34 277 57
57 125 67 203 31z m-2934 -11 c20 -19 26 -34 26 -66 0 -22 -5 -46 -12 -53 -9
-9 -7 -21 11 -52 27 -49 23 -78 -17 -115 -25 -24 -33 -25 -112 -23 l-85 3 -3
154 c-2 110 1 157 10 168 9 11 29 14 84 11 60 -3 77 -8 98 -27z m1416 -47 c0
-64 0 -65 23 -53 12 7 45 36 74 65 56 57 90 74 99 51 3 -9 -18 -38 -55 -76
-64 -64 -68 -72 -48 -93 47 -50 117 -138 117 -147 0 -6 -11 -11 -25 -11 -18 0
-39 18 -82 69 -79 94 -93 93 -103 -9 -4 -47 -8 -55 -25 -55 -19 0 -20 8 -23
154 -3 155 3 186 34 174 10 -4 14 -23 14 -69z m495 -99 l0 -160 -25 0 -25 0
-3 163 -3 163 28 -3 28 -3 0 -160z m311 131 c74 -86 162 -175 168 -169 3 3 6
51 6 105 l0 99 28 -3 27 -3 0 -159 c0 -120 -3 -160 -13 -164 -11 -3 -35 20
-156 153 -20 22 -36 43 -36 48 0 4 -7 7 -15 7 -12 0 -15 -17 -15 -94 0 -97
-11 -125 -45 -112 -13 4 -15 32 -15 166 0 150 1 160 19 160 10 0 31 -15 47
-34z"/>
<path d="M2635 2658 c-3 -8 -4 -57 -3 -109 l3 -94 54 1 c49 0 57 3 83 34 36
44 38 102 5 142 -18 22 -33 29 -79 34 -46 5 -59 4 -63 -8z"/>
<path d="M2634 2367 c-2 -7 -3 -65 -2 -128 l3 -114 32 -3 c43 -4 110 15 133
38 10 10 24 37 31 59 10 35 9 45 -10 84 -19 38 -29 48 -68 61 -57 19 -112 21
-119 3z"/>
<path d="M3329 2642 c-41 -27 -55 -45 -79 -97 -19 -41 -22 -67 -22 -160 0 -99
2 -116 25 -161 36 -71 82 -104 146 -104 42 0 56 5 85 31 46 40 65 78 82 164
28 139 -20 285 -108 331 -37 19 -98 17 -129 -4z"/>
<path d="M4077 2642 c-35 -23 -52 -46 -77 -101 -29 -63 -29 -239 0 -302 40
-87 81 -119 154 -119 46 0 53 3 97 49 52 54 73 117 73 221 0 104 -21 167 -73
221 -44 46 -51 49 -97 49 -31 0 -59 -7 -77 -18z"/>
<path d="M3439 1675 c-30 -16 -59 -70 -59 -110 0 -57 67 -125 122 -125 28 0
74 26 97 56 15 19 21 41 21 77 0 44 -4 53 -36 83 -29 28 -43 34 -77 34 -23 -1
-54 -7 -68 -15z"/>
<path d="M4030 1693 c-61 -20 -100 -70 -100 -128 0 -63 59 -125 119 -125 25 0
74 26 96 50 23 25 26 106 6 143 -12 22 -85 69 -102 66 -2 0 -11 -3 -19 -6z"/>
<path d="M2944 1676 c-3 -8 -4 -29 -2 -48 3 -28 7 -33 32 -36 61 -7 104 42 70
79 -21 23 -92 27 -100 5z"/>
<path d="M2942 1498 c3 -43 3 -43 45 -46 52 -4 83 12 83 41 0 35 -19 47 -78
47 l-53 0 3 -42z"/>
</g>
</svg>
